<?xml version="1.0" encoding="UTF-8"?>
<svg width="39px" height="40px" viewBox="0 0 39 40" version="1.1" xmlns="http://www.w3.org/2000/svg" xmlns:xlink="http://www.w3.org/1999/xlink">
    <!-- Generator: sketchtool 50.2 (55047) - http://www.bohemiancoding.com/sketch -->
    <title>178AF954-016A-4782-9B4A-DCC5343974C1</title>
    <desc>Created with sketchtool.</desc>
    <defs></defs>
    <g id="QUESTION/REPONSE" stroke="none" stroke-width="1" fill="none" fill-rule="evenodd" fill-opacity="0.800000012">
        <g id="STRATE/AVIS-QUESTION/QUESTION/FULL/V3" transform="translate(-72.000000, -300.000000)" fill="#232323">
            <g id="QUESTION-/-Reponse-(x1)" transform="translate(50.000000, 267.523438)">
                <g id="nom" transform="translate(20.945312, 32.000000)">
                    <g id="avatar" transform="translate(0.797624, 1.226562)">
                        <path d="M19.6172972,38.2933254 C9.04288741,38.2933254 0.470634525,29.7210725 0.470634525,19.1466627 C0.470634525,8.57225288 9.04288741,0 19.6172972,0 C30.191707,0 38.7639599,8.57225288 38.7639599,19.1466627 C38.7639599,29.7210725 30.191707,38.2933254 19.6172972,38.2933254 Z M10.9285587,28.719994 L28.3059095,28.719994 C28.3271847,23.8728866 25.6567083,21.4611485 23.527501,20.3644074 C22.5352618,21.533315 21.155987,22.0421514 19.6172972,22.0421514 C18.0786075,22.0421514 16.6968688,21.533315 15.7046296,20.3644074 C12.5897212,22.0363447 10.9285587,24.6964554 10.9285587,28.719994 Z M19.6779737,9.57333135 C16.8410446,9.57333135 14.5372297,11.8524277 14.5372297,14.6589184 C14.5372297,17.465409 16.8410446,19.7445054 19.6779737,19.7445054 C22.5149028,19.7445054 24.8187177,17.465409 24.8187177,14.6589184 C24.8187177,11.8524277 22.5149028,9.57333135 19.6779737,9.57333135 Z"></path>
                    </g>
                </g>
            </g>
        </g>
    </g>
</svg>