<svg xmlns="http://www.w3.org/2000/svg" width="160" height="36"><g fill="none"><path fill="#333" d="M3.4 28.2h5.7V13h10v15.2h5.7V17.5c.3-1.8 1.5-4.3 6-4.7 0 0 6.4-1 7.2 4.7v10.7h5.7V15.3C42.4 6.2 29.5 9 29.5 9c-3 .8-4.2 2-4.7 2.7V9.1H9c-.4-5 4.8-4.9 4.8-4.9 5.1-.1 5.3 3.1 5.3 3.1h5.7c0-5.9-8.2-6.5-8.2-6.5-8-.7-10.8 2-10.8 2C3.3 5 3.4 8.4 3.4 9.1H.2V13h3.2v15.2zM61.7 23a6.5 6.5 0 0 1-5.2 2.4c-1.7 0-5.5.3-5.6-2.5 0-2.7 4.6-2.6 7.7-2.8 0 0 3.1 0 3.7-.9.1.1.6 2.3-.6 3.8m-.1-13.8c-6.3-1-10 0-10 0-6.1 1.3-6.1 6.2-6.1 6.2h5.8s0-3.8 6.3-3.3c0 0 4.5.2 4.7 2.2 0 0 1.5 2.4-4.7 2.8-6.3.4-13.7.3-13 6 0 0 0 5.6 10.1 5.4 0 0 5.5.2 7.7-2.6v.1l.2 2.2h5.6V16.7c.4-6.6-6.6-7.5-6.6-7.5M88 22c-.9 1.7-2.6 2.7-5.8 2.7 0 0-7 .5-7.3-5.9v-.2c.3-6.3 7.3-6 7.3-6 3.2 0 5 1 5.8 2.9h5.8a5.7 5.7 0 0 0-.7-2.3c-1.5-2.2-4.7-4.7-12.3-4.3a18 18 0 0 0-5.2.9c-2.5 1-6.7 3.6-6.6 8.6v.6c0 5 4 7.6 6.6 8.6 1.7.5 3.4.8 5.2.9 5 .2 8.2-.7 10.1-2.1 2.9-2 2.9-4.5 2.9-4.5H88z"/><path fill="#E9AA00" d="M99.4 9.2h5.7v2.4c1.5-2 3.8-3 6.5-3 6.7 0 9.7 5 9.7 10.5 0 5.2-3.1 10-9.4 10a8 8 0 0 1-6.5-3v9.3h-6V9.2zm16 9.7c0-3-1.4-6.2-5.2-6.2-3.7 0-5 3-5 6.2s1.3 6.2 5 6.2c3.9 0 5.2-3 5.2-6.2zm8.2-9.7h5.6v3.6c1.2-2.5 4-4.2 7-4.2l1.2.2v5a12 12 0 0 0-2-.2c-4.4 0-5.9 2.8-5.9 6.2v8.7h-5.9V9.2zm24.6-.5c6.8 0 11.2 4 11.2 10.2 0 6.2-4.4 10.2-11.2 10.2-6.8 0-11-4-11-10.2 0-6.1 4.3-10.2 11-10.2zm0 16.4c4 0 5.2-3.1 5.2-6.2 0-3-1.2-6.2-5.2-6.2s-5.2 3-5.2 6.2 1.2 6.2 5.2 6.2z"/></g></svg>
